<?xml version="1.0" standalone="no"?>
<!DOCTYPE svg PUBLIC "-//W3C//DTD SVG 20010904//EN"
 "http://www.w3.org/TR/2001/REC-SVG-20010904/DTD/svg10.dtd">
<svg version="1.0" xmlns="http://www.w3.org/2000/svg"
 width="914.000000pt" height="510.000000pt" viewBox="0 0 914.000000 510.000000"
 preserveAspectRatio="xMidYMid meet">

<g transform="translate(0.000000,510.000000) scale(0.100000,-0.100000)"
fill="#000000" stroke="none">
<path d="M4559 4746 c8 -9 8 -16 2 -20 -5 -4 -6 -18 -3 -34 4 -15 5 -80 2
-145 -4 -90 -2 -117 8 -117 6 0 12 -4 12 -10 0 -5 -5 -10 -11 -10 -6 0 -9 -6
-6 -14 4 -10 -4 -19 -21 -25 -22 -9 -16 -10 33 -6 34 3 75 1 93 -6 27 -9 36
-9 51 5 22 20 29 20 77 -3 28 -14 44 -16 57 -9 13 7 25 5 41 -5 12 -8 34 -13
48 -10 14 3 29 0 32 -6 4 -6 20 -11 35 -11 17 0 38 -11 55 -29 23 -24 35 -29
57 -24 22 4 30 1 36 -13 3 -11 19 -35 35 -54 16 -19 33 -41 39 -48 40 -50 69
-263 46 -335 -10 -30 -74 -77 -106 -77 -32 0 -81 48 -81 79 0 28 29 62 63 74
30 11 19 34 -48 105 -62 66 -67 70 -122 76 -32 4 -84 13 -116 22 -66 17 -183
19 -242 4 -22 -5 -60 -10 -85 -11 -45 -1 -45 -3 0 -13 l25 -5 -3 -407 c-2
-296 0 -410 9 -420 9 -12 6 -13 -22 -9 -19 3 -27 2 -19 -1 29 -13 111 -79 127
-103 28 -44 41 -112 31 -171 -5 -30 -10 -66 -12 -80 -4 -28 -40 -94 -67 -125
-12 -14 12 -5 78 27 193 95 306 140 335 134 21 -4 30 -1 38 14 6 11 24 27 40
35 16 8 32 26 36 39 9 36 93 109 149 130 28 11 61 26 74 35 14 9 38 16 55 17
17 1 64 7 104 13 45 6 81 7 95 1 12 -5 38 -11 58 -15 81 -13 109 -98 56 -169
-16 -20 -60 -57 -98 -82 -38 -25 -71 -50 -75 -55 -3 -5 -18 -9 -33 -9 -19 0
-32 -8 -41 -25 -7 -13 -23 -27 -34 -31 -12 -3 -32 -17 -46 -30 -47 -46 -103
-84 -122 -84 -10 0 -22 -10 -27 -21 -7 -21 -58 -57 -114 -81 -27 -13 -30 -18
-42 -75 -5 -27 -2 -34 19 -48 20 -14 38 -15 93 -10 37 4 79 13 93 20 14 7 43
16 64 19 22 4 54 18 71 32 18 13 37 24 43 24 6 0 27 13 45 30 19 17 41 30 49
30 8 0 23 10 34 21 10 12 33 28 49 36 50 23 100 56 140 91 20 18 43 31 51 28
8 -3 14 1 14 9 0 8 12 22 26 32 15 10 47 37 71 61 58 57 76 53 77 -16 1 -36
-5 -63 -16 -80 -10 -15 -18 -35 -18 -44 0 -10 -24 -35 -54 -57 -30 -22 -71
-61 -91 -86 -29 -34 -44 -45 -66 -45 -19 0 -29 -5 -29 -15 0 -18 -82 -75 -109
-75 -13 0 -26 -11 -36 -30 -9 -18 -26 -32 -43 -36 -15 -4 -52 -19 -82 -34 -30
-15 -93 -39 -139 -55 -67 -22 -88 -25 -103 -16 -11 7 -38 9 -71 5 -62 -7 -138
21 -158 58 -7 13 -20 28 -29 35 -9 6 -22 31 -29 55 -7 25 -25 54 -43 69 -28
23 -30 29 -23 68 4 26 18 53 35 71 27 27 48 85 36 97 -3 3 -22 -8 -43 -24 -47
-37 -77 -53 -98 -53 -9 0 -31 -11 -48 -24 -18 -13 -50 -29 -72 -36 -22 -7 -54
-24 -71 -37 -17 -13 -52 -30 -78 -39 -44 -15 -61 -27 -33 -23 6 1 22 1 34 0
19 -1 21 -4 12 -33 -5 -17 -9 -270 -9 -562 -1 -421 2 -531 12 -538 7 -4 11 -8
8 -8 -3 0 -23 -7 -45 -16 -39 -14 -36 -15 81 -10 359 14 727 167 1019 423 397
349 621 903 576 1425 -14 157 -50 326 -97 457 -34 92 -143 320 -168 351 -7 8
-16 22 -21 30 -18 37 48 -51 84 -110 129 -216 213 -466 240 -722 35 -323 -30
-672 -183 -975 -84 -168 -251 -385 -389 -506 -75 -66 -172 -145 -208 -168
l-23 -16 24 1 c26 1 30 -11 15 -46 -5 -13 -2 -18 11 -19 17 0 16 -1 -2 -9 -12
-5 -25 -14 -29 -20 -7 -12 11 -30 30 -30 6 0 4 4 -3 9 -10 6 -5 10 15 14 38 8
147 83 260 179 277 237 470 575 555 973 21 99 23 134 22 355 0 215 -3 257 -22
345 -90 407 -277 735 -562 989 -81 73 -235 182 -354 253 -211 124 -535 213
-779 213 -67 0 -78 -2 -68 -14z"/>
<path d="M4185 4719 c-519 -107 -961 -444 -1197 -912 -184 -368 -233 -773
-142 -1184 111 -502 388 -854 854 -1087 210 -106 491 -177 690 -175 l45 0 -35
12 c-23 8 -35 18 -34 30 1 9 -3 17 -10 17 -7 0 -10 29 -9 92 2 51 4 279 5 506
3 382 4 414 21 423 9 6 17 15 17 20 0 6 -12 4 -27 -5 -16 -8 -50 -25 -78 -37
-27 -12 -68 -35 -90 -49 -22 -15 -67 -41 -100 -58 -33 -16 -69 -39 -79 -51
-11 -12 -29 -21 -40 -21 -12 0 -38 -14 -60 -30 -21 -16 -52 -32 -70 -35 -17
-4 -65 -22 -106 -40 -106 -47 -379 -106 -451 -98 -90 10 -137 59 -105 108 14
22 216 135 240 135 16 0 179 72 351 155 83 40 175 81 205 91 30 10 78 28 107
41 55 24 151 112 193 177 14 21 37 52 51 69 30 38 43 67 28 67 -6 0 -3 7 5 16
19 18 19 24 5 61 -17 44 -49 73 -124 109 -38 19 -77 38 -85 43 -14 8 -63 22
-203 57 -32 7 -72 22 -90 31 -18 9 -54 20 -82 24 -113 17 -257 55 -306 80 -21
10 -47 19 -58 19 -26 0 -117 73 -136 110 -19 37 -19 115 0 171 35 97 155 244
275 337 160 122 202 150 271 177 41 16 85 39 100 52 14 13 34 23 46 23 11 0
26 7 33 15 7 8 22 15 34 15 12 0 27 5 34 12 13 13 236 88 262 88 10 0 23 7 30
15 11 13 10 18 -6 30 -16 12 -17 16 -5 24 12 8 12 12 2 25 -10 12 -12 49 -9
154 3 75 7 144 9 152 6 22 -66 21 -176 -1z m185 -1801 c0 -20 -18 -5 -23 19
-5 26 -4 26 9 8 8 -10 14 -22 14 -27z"/>
<path d="M4275 4032 c-33 -8 -91 -28 -129 -45 -60 -26 -73 -29 -99 -19 -34 13
-47 8 -47 -17 0 -21 -40 -51 -68 -51 -11 0 -24 -6 -30 -12 -6 -7 -33 -22 -62
-33 -28 -11 -57 -30 -66 -42 -8 -13 -25 -23 -38 -23 -13 0 -29 -7 -36 -15 -7
-8 -18 -15 -24 -15 -15 0 -159 -139 -203 -197 -47 -60 -44 -89 10 -112 23 -9
63 -23 89 -30 26 -8 55 -22 64 -32 13 -14 21 -16 36 -8 11 6 32 8 46 4 15 -4
64 -9 109 -11 46 -2 91 -7 100 -12 10 -4 43 -7 73 -6 31 1 67 -4 82 -12 15 -8
46 -14 70 -14 24 0 54 -7 67 -17 14 -9 47 -17 80 -18 31 -1 65 -6 76 -10 19
-8 19 -7 4 11 -21 25 -33 74 -18 74 8 0 8 4 -1 15 -14 17 -12 552 2 571 5 7 2
16 -7 24 -22 18 -18 45 8 58 l22 11 -25 -1 c-14 0 -52 -7 -85 -16z"/>
<path d="M5495 3059 c-16 -5 -46 -15 -65 -21 -19 -6 -67 -33 -105 -59 -60 -41
-75 -57 -100 -108 -16 -34 -26 -63 -23 -66 10 -10 72 20 124 61 28 22 68 52
90 69 21 16 58 46 81 67 24 21 47 38 53 38 5 0 10 7 10 15 0 17 -20 18 -65 4z"/>
<path d="M3740 2306 c-14 -7 -43 -17 -65 -21 -44 -7 -253 -107 -237 -113 31
-10 382 122 382 144 0 9 -57 2 -80 -10z"/>
<path d="M2697 1051 c-62 -20 -120 -59 -138 -92 -15 -29 11 -55 62 -63 57 -9
109 -32 109 -49 0 -23 -37 -50 -112 -82 -40 -16 -70 -34 -67 -40 7 -18 52 -5
154 46 56 27 104 49 107 49 3 0 9 -11 12 -25 10 -41 38 -48 79 -21 l35 24 22
-25 c25 -29 53 -26 112 13 21 13 39 24 41 24 1 0 3 -12 2 -27 0 -44 35 -42 79
3 20 20 37 35 39 33 1 -2 7 -13 13 -24 8 -13 22 -20 42 -20 17 0 34 -3 38 -7
14 -15 45 -8 84 18 22 15 44 24 47 20 12 -12 -11 -40 -48 -58 -70 -36 -126
-115 -101 -140 17 -17 56 7 104 64 22 26 47 48 55 48 11 0 14 6 10 21 -3 11 3
41 14 66 23 55 24 52 -3 62 -25 9 -125 -22 -168 -52 -31 -22 -50 -22 -50 1 0
19 10 39 64 126 37 61 46 96 24 96 -13 0 -64 -70 -92 -127 -14 -28 -20 -32
-44 -27 -22 4 -35 -1 -59 -23 -17 -17 -38 -30 -45 -30 -7 0 -31 -11 -53 -25
-22 -14 -50 -28 -62 -32 -41 -13 -26 20 22 51 25 15 45 33 45 39 0 21 -27 23
-61 4 -19 -10 -43 -23 -54 -28 -11 -6 -31 -22 -44 -36 -14 -14 -33 -26 -43
-26 -28 0 -22 33 13 66 35 33 109 160 109 187 0 51 -82 -31 -136 -135 -33 -65
-84 -92 -84 -45 0 29 -30 45 -105 53 -30 4 -63 12 -72 19 -17 13 -17 14 0 33
25 27 108 62 166 69 52 6 91 -8 91 -33 0 -8 5 -12 10 -9 15 9 12 30 -7 54 -26
30 -86 35 -156 12z"/>
<path d="M4039 1050 c-19 -10 -52 -37 -72 -60 -33 -35 -36 -43 -26 -62 10 -18
9 -23 -2 -27 -8 -2 -31 -21 -51 -41 -43 -42 -50 -86 -20 -113 25 -23 49 -21
100 8 51 29 152 113 152 126 0 5 -30 -13 -67 -42 -72 -55 -100 -69 -140 -69
-22 0 -24 3 -18 28 9 39 71 99 132 128 53 25 69 44 36 44 -10 -1 -29 -7 -43
-15 -14 -8 -28 -14 -32 -15 -32 -1 37 81 87 104 19 9 35 19 35 21 0 11 -37 3
-71 -15z"/>
<path d="M4103 1025 c-9 -20 -8 -25 2 -25 7 0 16 7 19 16 15 40 -3 47 -21 9z"/>
<path d="M4502 997 c-14 -15 -44 -28 -84 -36 -70 -14 -101 -28 -93 -41 3 -4
30 -2 61 7 96 25 97 14 10 -71 -43 -42 -82 -76 -87 -76 -5 0 -9 18 -9 40 0 51
-18 59 -63 31 -42 -26 -43 -26 -50 -1 -7 26 -16 25 -52 -6 -26 -22 -27 -24 -7
-19 25 7 28 -2 7 -29 -14 -18 -12 -36 4 -36 5 0 28 16 52 35 55 44 79 46 79 6
0 -16 7 -34 15 -41 12 -10 24 -5 70 30 31 24 58 47 61 51 12 20 24 6 24 -28 0
-44 13 -69 29 -59 8 5 8 13 0 27 -30 56 27 164 97 184 51 14 60 39 10 30 -29
-6 -36 -4 -36 9 0 22 -13 20 -38 -7z"/>
<path d="M4999 1000 c-9 -14 -36 -26 -79 -35 -82 -19 -116 -33 -104 -45 5 -5
36 -1 71 8 34 9 65 13 69 9 10 -9 -111 -133 -148 -153 -36 -19 -47 0 -18 31
16 18 21 31 16 49 -3 15 -11 26 -18 26 -6 0 -41 -20 -77 -43 -87 -58 -105 -67
-132 -67 -21 0 -21 1 -5 19 9 10 32 27 51 37 35 18 47 43 23 45 -47 4 -79 -15
-104 -63 -13 -25 -12 -30 7 -49 28 -28 56 -20 142 38 37 26 70 44 73 41 3 -4
-2 -20 -11 -38 -15 -29 -15 -33 0 -50 23 -25 47 -16 110 41 29 27 56 49 59 49
3 0 6 -17 6 -37 0 -47 14 -73 31 -56 8 8 8 16 0 32 -24 44 34 169 80 172 27 2
33 3 47 12 23 15 13 29 -18 22 -22 -5 -32 -3 -36 9 -8 21 -19 20 -35 -4z"/>
<path d="M6547 999 c-10 -13 -37 -25 -78 -35 -82 -18 -115 -32 -103 -44 6 -6
30 -3 62 6 94 28 95 15 8 -70 -43 -42 -82 -76 -87 -76 -5 0 -9 18 -9 40 0 51
-18 59 -63 31 -41 -25 -47 -26 -47 -7 0 29 -19 25 -99 -24 -45 -27 -89 -46
-97 -43 -20 7 -3 27 47 55 38 21 52 47 27 49 -47 4 -79 -15 -104 -63 -13 -25
-12 -30 6 -48 11 -11 25 -20 30 -20 21 0 76 28 108 55 38 32 51 28 27 -8 -11
-17 -13 -27 -6 -32 13 -7 20 -3 79 42 49 37 62 35 62 -6 0 -32 23 -56 42 -45
7 4 39 30 71 57 l57 49 0 -40 c0 -22 3 -47 6 -56 13 -33 20 -14 20 47 -1 56 2
67 31 103 21 27 44 43 69 50 47 12 62 39 15 29 -23 -5 -32 -3 -37 9 -8 22 -20
20 -37 -5z"/>
<path d="M5350 970 c0 -5 5 -10 10 -10 6 0 10 5 10 10 0 6 -4 10 -10 10 -5 0
-10 -4 -10 -10z"/>
<path d="M3615 882 c-45 -9 -96 -82 -75 -107 21 -25 50 -27 94 -6 44 22 83 57
74 66 -3 3 -27 -8 -54 -24 -55 -34 -77 -41 -84 -26 -3 6 16 24 42 40 61 39 62
70 3 57z"/>
<path d="M5102 869 c-72 -36 -107 -110 -56 -117 12 -2 35 8 52 22 33 29 52 33
52 12 0 -36 47 -23 92 25 36 38 62 40 47 2 -23 -62 16 -70 85 -17 48 36 73 40
43 6 -20 -22 -22 -42 -4 -42 6 0 32 16 56 35 48 39 71 44 71 17 0 -10 7 -28
16 -40 18 -26 32 -21 100 34 45 38 64 35 33 -4 -13 -18 -16 -29 -9 -36 7 -7
26 5 60 39 40 40 50 46 56 32 3 -9 4 -23 1 -30 -3 -8 -1 -20 3 -28 7 -11 16
-7 43 19 35 34 47 33 47 -5 0 -32 26 -40 58 -16 36 27 44 53 9 30 -35 -23 -37
-22 -37 13 0 40 -22 48 -57 20 l-28 -22 -8 31 c-9 35 -22 38 -55 15 -18 -13
-26 -13 -38 -3 -12 10 -26 4 -82 -34 l-67 -46 -3 40 c-4 50 -21 57 -65 30 -41
-25 -47 -26 -47 -7 0 28 -21 27 -65 -3 -87 -59 -87 -59 -80 -7 5 32 4 46 -4
46 -20 0 -65 -27 -90 -54 -28 -30 -57 -36 -46 -8 4 9 10 27 12 40 4 17 2 21
-11 16 -9 -3 -22 -1 -29 5 -10 7 -24 5 -55 -10z"/>
<path d="M3998 648 c-14 -18 -34 -49 -46 -69 -22 -36 -57 -59 -92 -59 -11 0
-20 -7 -20 -15 0 -19 4 -19 40 0 41 21 40 2 -2 -61 -22 -33 -47 -55 -75 -68
-54 -24 -57 -46 -7 -46 26 0 46 8 71 30 39 35 99 40 160 15 44 -19 53 -19 53
-1 0 19 -24 27 -106 33 l-72 6 34 70 c19 39 52 90 75 113 24 25 40 49 37 60
-5 30 -25 27 -50 -8z"/>
<path d="M5248 602 c-14 -20 -35 -57 -47 -80 -18 -35 -25 -41 -39 -33 -18 10
-59 -6 -81 -33 -8 -9 -20 -16 -27 -16 -8 0 -32 -11 -53 -25 -46 -29 -91 -42
-91 -27 0 6 20 25 46 42 45 32 52 52 20 58 -24 5 -63 -23 -86 -61 -18 -29 -18
-33 -3 -49 23 -25 64 -22 107 7 38 26 62 33 51 15 -10 -17 5 -50 24 -50 9 0
32 16 51 35 19 19 36 35 40 35 3 0 10 -10 15 -22 6 -13 18 -24 27 -26 19 -4
86 53 75 64 -4 4 -17 -2 -30 -14 -64 -60 -62 0 3 103 27 44 50 88 50 98 0 29
-26 19 -52 -21z"/>
<path d="M4852 607 c-14 -15 -47 -31 -82 -40 -55 -14 -59 -13 -63 4 -7 27 -27
24 -27 -4 0 -13 -5 -28 -12 -35 -16 -16 0 -16 75 2 36 8 60 10 63 4 8 -13
-120 -138 -142 -138 -16 0 -16 11 0 50 3 8 2 21 -3 29 -7 12 -15 10 -43 -7
-18 -11 -44 -32 -57 -46 -31 -33 -51 -33 -51 -1 0 35 -26 42 -60 17 -31 -23
-40 -20 -40 15 0 28 -20 30 -57 6 -19 -13 -28 -14 -31 -5 -6 19 -23 14 -82
-23 -69 -44 -83 -45 -68 -5 5 17 7 37 4 45 -5 14 -9 14 -34 1 -16 -8 -35 -23
-43 -32 -13 -16 -12 -17 6 -10 33 12 40 12 36 -4 -2 -8 -5 -26 -5 -40 -2 -39
28 -36 90 9 32 23 59 39 61 37 2 -2 -4 -17 -14 -34 -29 -50 -6 -49 45 1 26 26
51 47 55 47 4 0 7 -15 7 -34 0 -49 16 -53 54 -16 l33 31 6 -31 c10 -48 31 -47
88 4 28 25 55 46 60 46 5 0 6 -20 2 -45 -5 -41 -4 -45 15 -45 11 0 47 22 79
50 l58 50 6 -51 c8 -56 14 -68 30 -52 8 8 8 17 0 32 -30 55 29 162 98 179 44
10 57 37 14 28 -24 -6 -31 -3 -39 14 -9 21 -9 21 -32 -3z"/>
<path d="M4197 584 c-8 -8 1 -24 14 -24 5 0 9 7 9 15 0 15 -12 20 -23 9z"/>
</g>
</svg>
